<svg width="40" height="40" viewBox="0 0 40 40" fill="none" xmlns="http://www.w3.org/2000/svg">
<rect width="40" height="40" rx="20" fill="#F5F5F5"/>
<g clip-path="url(#clip0_1049_113)">
<path d="M10 11H11.74C11.9953 11.0005 12.2476 11.0539 12.4813 11.1567C12.7149 11.2595 12.9247 11.4096 13.0976 11.5974C13.2704 11.7853 13.4025 12.0069 13.4855 12.2483C13.5685 12.4896 13.6007 12.7456 13.58 13L12.75 22.96C12.7182 23.3457 12.7667 23.7339 12.8925 24.0999C13.0183 24.4659 13.2186 24.8019 13.4807 25.0866C13.7429 25.3714 14.0613 25.5986 14.4157 25.7541C14.7701 25.9096 15.153 25.9899 15.54 25.99H26.19C26.8973 25.9766 27.5749 25.703 28.0933 25.2215C28.6117 24.74 28.9345 24.0844 29 23.38L29.54 15.88C29.5732 15.4933 29.5249 15.1039 29.3982 14.737C29.2714 14.3702 29.069 14.034 28.8042 13.7503C28.5393 13.4666 28.2178 13.2416 27.8605 13.09C27.5032 12.9383 27.1181 12.8634 26.73 12.87H13.82" stroke="#292D32" stroke-width="1.5" stroke-linecap="round" stroke-linejoin="round"/>
<path d="M25.5 29.75C25.5 29.9972 25.4267 30.2389 25.2893 30.4445C25.152 30.65 24.9568 30.8102 24.7284 30.9048C24.4999 30.9995 24.2486 31.0242 24.0061 30.976C23.7637 30.9278 23.5409 30.8087 23.3661 30.6339C23.1913 30.4591 23.0723 30.2363 23.024 29.9939C22.9758 29.7514 23.0005 29.5001 23.0952 29.2716C23.1898 29.0432 23.35 28.848 23.5555 28.7107C23.7611 28.5733 24.0028 28.5 24.25 28.5C24.5815 28.5 24.8995 28.6317 25.1339 28.8661C25.3683 29.1005 25.5 29.4185 25.5 29.75Z" stroke="#292D32" stroke-width="1.5" stroke-linecap="round" stroke-linejoin="round"/>
<path d="M17.5 29.75C17.5 29.9972 17.4267 30.2389 17.2893 30.4445C17.152 30.65 16.9568 30.8102 16.7284 30.9048C16.4999 30.9995 16.2486 31.0242 16.0061 30.976C15.7637 30.9278 15.5409 30.8087 15.3661 30.6339C15.1913 30.4591 15.0723 30.2363 15.024 29.9939C14.9758 29.7514 15.0005 29.5001 15.0952 29.2716C15.1898 29.0432 15.35 28.848 15.5555 28.7107C15.7611 28.5733 16.0028 28.5 16.25 28.5C16.5815 28.5 16.8995 28.6317 17.1339 28.8661C17.3683 29.1005 17.5 29.4185 17.5 29.75Z" stroke="#292D32" stroke-width="1.5" stroke-linecap="round" stroke-linejoin="round"/>
<path d="M17 17H29" stroke="#292D32" stroke-width="1.5" stroke-linecap="round" stroke-linejoin="round"/>
</g>
<defs>
<clipPath id="clip0_1049_113">
<rect width="24" height="24" fill="white" transform="translate(8 9)"/>
</clipPath>
</defs>
</svg>
