<svg width="40" height="40" viewBox="0 0 40 40" fill="none" xmlns="http://www.w3.org/2000/svg">
<rect width="40" height="40" rx="20" fill="#F5F5F5"/>
<g clip-path="url(#clip0_1049_105)">
<path d="M20.16 19.87C20.0502 19.86 19.9398 19.86 19.83 19.87C18.6662 19.8267 17.5659 19.3285 16.7656 18.4824C15.9654 17.6363 15.5291 16.5099 15.5508 15.3455C15.5724 14.1811 16.0501 13.0717 16.8812 12.2559C17.7123 11.4401 18.8304 10.983 19.995 10.983C21.1596 10.983 22.2777 11.4401 23.1088 12.2559C23.9399 13.0717 24.4176 14.1811 24.4392 15.3455C24.4608 16.5099 24.0246 17.6363 23.2244 18.4824C22.4241 19.3285 21.3238 19.8267 20.16 19.87Z" stroke="#292D32" stroke-width="1.5" stroke-linecap="round" stroke-linejoin="round"/>
<path d="M15.16 23.561C12.74 25.181 12.74 27.821 15.16 29.431C16.6732 30.3341 18.4027 30.811 20.165 30.811C21.9273 30.811 23.6567 30.3341 25.17 29.431C27.59 27.811 27.59 25.171 25.17 23.561C23.6551 22.6626 21.9262 22.1885 20.165 22.1885C18.4037 22.1885 16.6749 22.6626 15.16 23.561V23.561Z" stroke="#292D32" stroke-width="1.5" stroke-linecap="round" stroke-linejoin="round"/>
</g>
<defs>
<clipPath id="clip0_1049_105">
<rect width="24" height="24" fill="white" transform="translate(8 9)"/>
</clipPath>
</defs>
</svg>
