<svg width="40" height="40" viewBox="0 0 40 40" fill="none" xmlns="http://www.w3.org/2000/svg">
<rect width="40" height="40" rx="20" fill="#F5F5F5"/>
<g clip-path="url(#clip0_1049_123)">
<path d="M28 19C28 20.78 27.4722 22.5201 26.4832 24.0001C25.4943 25.4802 24.0887 26.6337 22.4442 27.3149C20.7996 27.9961 18.99 28.1743 17.2442 27.8271C15.4984 27.4798 13.8947 26.6226 12.636 25.364C11.3774 24.1053 10.5202 22.5016 10.1729 20.7558C9.82567 19.01 10.0039 17.2004 10.6851 15.5558C11.3663 13.9113 12.5198 12.5057 13.9999 11.5168C15.4799 10.5278 17.22 10 19 10C21.387 10 23.6761 10.9482 25.364 12.636C27.0518 14.3239 28 16.6131 28 19V19Z" stroke="#292D32" stroke-width="1.5" stroke-linecap="round" stroke-linejoin="round"/>
<path d="M26.93 28.69C27.46 30.29 28.67 30.45 29.6 29.05C30.45 27.77 29.89 26.72 28.35 26.72C28.1055 26.6964 27.859 26.7373 27.6353 26.8386C27.4115 26.9399 27.2181 27.0981 27.0745 27.2974C26.9308 27.4966 26.8419 27.7301 26.8166 27.9744C26.7912 28.2188 26.8303 28.4655 26.93 28.69V28.69Z" stroke="#292D32" stroke-width="1.5" stroke-linecap="round" stroke-linejoin="round"/>
</g>
<defs>
<clipPath id="clip0_1049_123">
<rect width="24" height="24" fill="white" transform="translate(8 8)"/>
</clipPath>
</defs>
</svg>
