<svg width="25" height="20" viewBox="0 0 25 20" fill="none" xmlns="http://www.w3.org/2000/svg">
<path d="M1.55965 19.1967C1.50933 19.1968 1.45956 19.1867 1.41346 19.1672C1.36737 19.1477 1.32596 19.1191 1.29184 19.0833C1.25773 19.0476 1.23165 19.0053 1.21525 18.9593C1.19885 18.9133 1.19249 18.8644 1.19657 18.8159C1.20543 18.6912 2.2671 6.49649 16.1446 5.45019L16.1111 0.853727C16.1107 0.782667 16.1325 0.713142 16.1736 0.654283C16.2148 0.595424 16.2734 0.549983 16.3417 0.523929C16.41 0.497875 16.4849 0.492426 16.5565 0.508298C16.6281 0.524169 16.693 0.560619 16.7428 0.61286L24.3812 8.43294C24.4449 8.49817 24.4804 8.58452 24.4804 8.67428C24.4804 8.76405 24.4449 8.8504 24.3812 8.91563L16.6956 16.8062C16.6454 16.8576 16.5803 16.8932 16.5089 16.9084C16.4374 16.9236 16.3629 16.9175 16.2951 16.8911C16.2272 16.8647 16.1691 16.8191 16.1284 16.7603C16.0877 16.7016 16.0663 16.6323 16.0669 16.5615L16.1111 12.0869C13.3733 12.2642 10.7003 12.9722 8.25087 14.1689C5.80147 15.3656 3.6257 17.0265 1.85286 19.053C1.81906 19.0975 1.77491 19.1337 1.72398 19.1587C1.67304 19.1837 1.61675 19.1967 1.55965 19.1967ZM16.8412 1.74674L16.8707 5.7796C16.8714 5.86952 16.8366 5.9563 16.7733 6.02215C16.71 6.088 16.623 6.12793 16.5303 6.13376C5.36356 6.81637 2.70692 14.6888 2.09688 17.7125C5.87838 13.91 11.0106 11.6381 16.4565 11.3557C16.5062 11.3531 16.5559 11.3604 16.6026 11.3771C16.6492 11.3938 16.6919 11.4196 16.7278 11.4529C16.7638 11.4862 16.7923 11.5262 16.8117 11.5706C16.831 11.615 16.8407 11.6627 16.8402 11.7108L16.8019 15.6694L23.6147 8.67571L16.8412 1.74674Z" fill="#707070" stroke="#707070" stroke-width="0.756534"/>
</svg>
